<svg xmlns="http://www.w3.org/2000/svg" width="18" height="18" viewBox="0 0 18 18">
  <g id="SVGRepo_iconCarrier" transform="translate(-1 -1)">
    <path id="Path_13" data-name="Path 13" d="M10.273,7.818a.818.818,0,1,1,1.636,0v2.455h2.455a.818.818,0,1,1,0,1.636H11.909v2.455a.818.818,0,1,1-1.636,0V11.909H7.818a.818.818,0,0,1,0-1.636h2.455Z" transform="translate(-1.091 -1.091)"/>
    <path id="Path_14" data-name="Path 14" d="M19,10a9,9,0,1,1-9-9A9,9,0,0,1,19,10ZM2.642,10A7.358,7.358,0,1,0,10,2.642,7.358,7.358,0,0,0,2.642,10Z" fill-rule="evenodd"/>
  </g>
</svg>
