<svg xmlns="http://www.w3.org/2000/svg" width="25.398" height="18.234" viewBox="0 0 25.398 18.234">
  <g id="SVGRepo_iconCarrier" transform="translate(-3 -9.444)">
    <g id="Expanded" transform="translate(3 9.444)">
      <path id="Path_2" data-name="Path 2" d="M7.43,15.712a2.765,2.765,0,0,0-2.319.182c-.642.428-1.22,1.343-1.222,3.243H3.45a.45.45,0,0,0-.45.45v7.643a.45.45,0,0,0,.45.45h.9A1.349,1.349,0,0,0,5.7,26.33V24.756H7.721a1.345,1.345,0,0,0,1.051-.5.446.446,0,0,0,.066-.055l4.97-4.97L21.8,21.369a.449.449,0,0,0,.55-.318l.191-.712,1.563.419a1.348,1.348,0,0,0,1.652-.954l.5-1.873L28.11,16.2h0a.9.9,0,0,0-.382-1.534L8.4,9.475a.9.9,0,0,0-1.1.635L6.183,14.262a.45.45,0,0,0,.318.551l1.107.3-.178.6ZM4.346,20.035H3.9v6.744h.45a.45.45,0,0,0,.45-.45V20.485a.45.45,0,0,0-.449-.45h0ZM5.7,22.958v.9h.751a1.353,1.353,0,0,1,0-.9Zm2.023,0a.45.45,0,1,1-.45.45A.45.45,0,0,1,7.721,22.958Zm1.217-.132L12.8,18.96l-1-.269-3.5,3.5a1.35,1.35,0,0,1,.636.636ZM7.176,16.567a1.785,1.785,0,0,0-1.566.074c-.5.334-.839,1.08-.822,2.568a1.35,1.35,0,0,1,.91,1.276v1.574H7.162L10.8,18.422,7.38,17.506a.449.449,0,0,1-.315-.562Zm1.3-1.225-.419,1.414,13.535,3.627.843-3.144-1.3-.349L20,18.172a.45.45,0,0,1-.453.136L8.477,15.343ZM25.3,18.007l-.419,1.563a.45.45,0,0,1-.551.318l-1.564-.419.535-2,2,.535Zm.427-.816L27.5,15.544a.008.008,0,0,0,0,0l0,0L8.165,10.343l-1,3.717.526.141.015,0,11.8,3.162,1.136-1.282a.45.45,0,0,1,.453-.136ZM14.265,13.356a.593.593,0,1,1-.727.419.594.594,0,0,1,.727-.419Zm-2.293-.615a.593.593,0,1,1-.727.419A.594.594,0,0,1,11.972,12.741Zm-2.293-.615a.594.594,0,1,1-.727.42.594.594,0,0,1,.727-.42Z" transform="translate(-3 -9.444)" fill-rule="evenodd"/>
    </g>
  </g>
</svg>
