<svg xmlns="http://www.w3.org/2000/svg" width="19.077" height="18.764" viewBox="0 0 19.077 18.764">
  <g id="Group_86" data-name="Group 86" transform="translate(-774 -404.436)">
    <path id="Path_26" data-name="Path 26" d="M331.306,115.021c0,2.774-4.8,7.454-4.8,7.454s-4.8-4.68-4.8-7.454a4.807,4.807,0,1,1,9.606,0Z" transform="translate(457.729 295.117)"/>
    <path id="Path_29" data-name="Path 29" d="M266.246,92.359l-.111-.1a35.044,35.044,0,0,1-2.707-2.9c-1.809-2.188-2.728-3.941-2.728-5.214a5.546,5.546,0,0,1,11.091,0c0,1.271-.917,3.025-2.728,5.214a34.191,34.191,0,0,1-2.707,2.9Zm0-13.433a5.22,5.22,0,0,0-5.22,5.22c0,1.486,1.442,3.542,2.652,5a34.871,34.871,0,0,0,2.568,2.763,34.751,34.751,0,0,0,2.57-2.763c1.21-1.462,2.652-3.518,2.652-5a5.22,5.22,0,0,0-5.222-5.22Z" transform="translate(517.406 325.836)"/>
    <path id="Path_30" data-name="Path 30" d="M81.042,642.48l-4.878-1.228-4.765.336,3.149-5.441,2.611-.347.043.323-2.453.325-2.763,4.771,4.205-.295,4.847,1.219,4.5-1.219,4.366.26-2.648-4.737-2.4-.325.043-.323,2.561.347,3.017,5.4-4.908-.293Z" transform="translate(702.6 -219.28)"/>
  </g>
</svg>
