<svg xmlns="http://www.w3.org/2000/svg" width="19" height="19" viewBox="0 0 19 19">
  <path id="Path_1" data-name="Path 1" d="M22.527,5.5H6.473a.973.973,0,0,0-.973.973V22.527a.973.973,0,0,0,.973.973H22.527a.973.973,0,0,0,.973-.973V6.473A.973.973,0,0,0,22.527,5.5ZM16.932,20.095H8.176m12.649,3.383V21.171H19.737a.979.979,0,0,1-.981-.981v-.262a.979.979,0,0,1,.981-.981h1.087V15.7H19.616a.979.979,0,0,1-.981-.981v-.262a.979.979,0,0,1,.981-.981h1.209V10.1H19.616a.979.979,0,0,1-.981-.981V8.862a.979.979,0,0,1,.981-.981h1.209V5.52m-3.892,9.223H8.176M14.5,9.392H8.176" transform="translate(-5 -5)" fill="none" stroke="#000" stroke-linecap="round" stroke-linejoin="round" stroke-width="1"/>
</svg>
