<svg xmlns="http://www.w3.org/2000/svg" width="18" height="18" viewBox="0 0 18 18">
  <g id="SVGRepo_iconCarrier" transform="translate(-1 -1)">
    <path id="Path_15" data-name="Path 15" d="M15.2,11.82a.82.82,0,0,0-.82-.82H7.82a.82.82,0,0,0,0,1.64h6.561A.82.82,0,0,0,15.2,11.82Z" transform="translate(-1.1 -1.82)"/>
    <path id="Path_16" data-name="Path 16" d="M10,19a9,9,0,1,0-9-9A9,9,0,0,0,10,19Zm0-1.642A7.358,7.358,0,1,1,17.358,10,7.358,7.358,0,0,1,10,17.358Z" fill-rule="evenodd"/>
  </g>
</svg>
