<svg xmlns="http://www.w3.org/2000/svg" width="20" height="20" viewBox="0 0 20 20">
  <g id="SVGRepo_iconCarrier" transform="translate(-1 -1)">
    <path id="Path_34" data-name="Path 34" d="M17.28,9.28a.75.75,0,0,0-1.06-1.06l-5.97,5.97L7.78,11.72a.75.75,0,0,0-1.06,1.06l3,3a.75.75,0,0,0,1.06,0l6.5-6.5Z" transform="translate(-1 -1.001)"/>
    <path id="Path_35" data-name="Path 35" d="M11,1A10,10,0,1,0,21,11,10,10,0,0,0,11,1ZM2.364,11A8.636,8.636,0,1,1,11,19.636,8.636,8.636,0,0,1,2.364,11Z" fill-rule="evenodd"/>
  </g>
</svg>
