<svg xmlns="http://www.w3.org/2000/svg" width="20" height="20" viewBox="0 0 20 20">
  <g id="SVGRepo_iconCarrier" transform="translate(-4)">
    <g id="Page-1" transform="translate(4)">
      <g id="Icon-Set">
        <path id="search" d="M264.415,1154.286a7.006,7.006,0,1,1,7.121-7,7.06,7.06,0,0,1-7.121,7Zm11.4,3.626-5.163-5.083a8.158,8.158,0,0,0,2.182-5.546,8.416,8.416,0,1,0-8.415,8.277,8.452,8.452,0,0,0,5.3-1.851l5.184,5.1a.652.652,0,0,0,.915,0,.629.629,0,0,0,0-.9Z" transform="translate(-256 -1139)" fill-rule="evenodd"/>
      </g>
    </g>
  </g>
</svg>
