<svg xmlns="http://www.w3.org/2000/svg" width="15.787" height="17.51" viewBox="0 0 15.787 17.51">
  <g id="SVGRepo_iconCarrier" transform="translate(-3 -2)">
    <path id="Path_33" data-name="Path 33" d="M16.063,5.585l-.69,10.351a4.2,4.2,0,0,1-.286,1.7,1.724,1.724,0,0,1-.746.7,4.2,4.2,0,0,1-1.719.173H9.165a4.2,4.2,0,0,1-1.719-.173,1.723,1.723,0,0,1-.746-.7,4.2,4.2,0,0,1-.286-1.7L5.723,5.585M4,5.585H17.787m-3.447,0-.233-.7a3.951,3.951,0,0,0-.549-1.268,1.723,1.723,0,0,0-.691-.5A3.95,3.95,0,0,0,11.491,3H10.3a3.95,3.95,0,0,0-1.376.12,1.723,1.723,0,0,0-.691.5A3.95,3.95,0,0,0,7.68,4.885l-.233.7" fill="none" stroke="#c70000" stroke-linecap="round" stroke-linejoin="round" stroke-width="2"/>
  </g>
</svg>
