<svg xmlns="http://www.w3.org/2000/svg" width="21.93" height="20.876" viewBox="0 0 21.93 20.876">
  <g id="SVGRepo_iconCarrier" transform="translate(-2 -3.2)">
    <g id="Group_104" data-name="Group 104" transform="translate(2 3.2)">
      <path id="Path_36" data-name="Path 36" d="M11.522,42.677v.458a.939.939,0,0,1-.961.961h-7.6A.939.939,0,0,1,2,43.135H2v-.458c0-1.145,1.373-1.877,2.61-2.426.046,0,.092-.046.137-.092a.391.391,0,0,1,.32,0,3.224,3.224,0,0,0,1.74.5,3.47,3.47,0,0,0,1.74-.5.292.292,0,0,1,.275,0c.046,0,.092.046.137.092C10.195,40.846,11.522,41.533,11.522,42.677Z" transform="translate(-2 -23.22)"/>
      <ellipse id="Ellipse_5" data-name="Ellipse 5" cx="2.381" cy="2.61" rx="2.381" ry="2.61" transform="translate(2.381 11.354)"/>
      <path id="Path_37" data-name="Path 37" d="M26.5,3.2h0a6.817,6.817,0,0,0-7,6.638,6.508,6.508,0,0,0,.916,3.3.862.862,0,0,1,.092.366l-.778,2.106a.482.482,0,0,0,.32.6.292.292,0,0,0,.275,0l2.06-.732a.346.346,0,0,1,.366.046,7.34,7.34,0,0,0,3.662,1.007,6.854,6.854,0,0,0,7-6.684A6.765,6.765,0,0,0,26.5,3.2ZM26,5.81h1.373v3.2l-.137,2.106h-1.1l-.092-2.106V5.81Zm.687,7.92a.726.726,0,0,1-.824-.824.824.824,0,1,1,1.648,0C27.557,13.363,27.329,13.73,26.688,13.73Z" transform="translate(-11.488 -3.2)"/>
    </g>
  </g>
</svg>
