<svg xmlns="http://www.w3.org/2000/svg" width="24.905" height="18.519" viewBox="0 0 24.905 18.519">
  <g id="Group_85" data-name="Group 85" transform="translate(-446.595 -213.436)">
    <path id="Path_3" data-name="Path 3" d="M15.039,14.329a4.789,4.789,0,1,1,3.387-1.4A4.789,4.789,0,0,1,15.039,14.329Zm0-7.663a2.874,2.874,0,1,0,2.032.842A2.874,2.874,0,0,0,15.039,6.666Z" transform="translate(446.563 208.686)"/>
    <path id="Path_4" data-name="Path 4" d="M25.088,20.774a.97.97,0,0,1-.958-.958c0-2.49-1.354-4.151-7.982-4.151s-7.982,1.66-7.982,4.151a.958.958,0,0,1-1.916,0c0-6.067,6.935-6.067,9.9-6.067s9.9,0,9.9,6.067a.97.97,0,0,1-.958.958Z" transform="translate(445.454 211.18)"/>
    <path id="Path_5" data-name="Path 5" d="M9.164,14.727H8.755A3.849,3.849,0,0,1,9.5,7.064a.958.958,0,1,1-.192,1.9,1.915,1.915,0,0,0-2.082,1.711,1.9,1.9,0,0,0,1.724,2.095,1.953,1.953,0,0,0,1.188-.281.961.961,0,1,1,1.009,1.635A3.832,3.832,0,0,1,9.164,14.727Z" transform="translate(445.184 209.322)"/>
    <path id="Path_6" data-name="Path 6" d="M3.208,19.955A.971.971,0,0,1,2.25,19c0-3.448.92-5.747,5.428-5.747a.958.958,0,0,1,0,1.916c-3,0-3.512.958-3.512,3.832a.971.971,0,0,1-.958.958Z" transform="translate(444.345 211.042)"/>
  </g>
</svg>
